<?xml version="1.0" encoding="utf-8"?>
<!-- Generator: Adobe Illustrator 18.1.0, SVG Export Plug-In . SVG Version: 6.00 Build 0)  -->
<!DOCTYPE svg PUBLIC "-//W3C//DTD SVG 1.1//EN" "http://www.w3.org/Graphics/SVG/1.1/DTD/svg11.dtd">
<svg version="1.1" id="Layer_1" xmlns="http://www.w3.org/2000/svg" xmlns:xlink="http://www.w3.org/1999/xlink" x="0px" y="0px"
	 viewBox="0 0 146.1 146.1" enable-background="new 0 0 146.1 146.1" xml:space="preserve">
<g>
	<path fill="#4FAEDD" d="M75.2,27.5c2.5,2.3,5.1,4.4,7.9,6.4c3.4-0.4,6.8-1,10.2-1.7c-0.1-0.4-0.2-0.9-0.4-1.3
		c-4.4-2.7-8.6-5.6-12.7-8.8C78.6,24,77,25.8,75.2,27.5z"/>
	<path fill="#E34A3B" d="M41.5,112.9c-3.3-1.6-6.6-3.1-10-4.5c-1.5,3.9-3.4,7.7-5.4,11.4C30.9,117.1,36.1,114.8,41.5,112.9z"/>
	<path fill="#4FAEDD" d="M91.8,26c-1.1-5.7-1.8-11.5-1.9-17.5c-2.2,3.8-4.7,7.4-7.4,10.8C85.5,21.7,88.6,23.9,91.8,26z"/>
	<path fill="#E34A3B" d="M47,111.1c0.4-0.1,0.7-0.2,1.1-0.3c-1-3.1-2.2-6.2-3.5-9.3c-3.2-1.4-6.4-2.6-9.7-3.6
		c-0.6,2.4-1.3,4.8-2.2,7.1c4.7,1.8,9.2,3.9,13.6,6.3C46.5,111.3,46.7,111.2,47,111.1z"/>
	<path fill="#E34A3B" d="M39.3,91.2c-0.7-1.2-1.5-2.4-2.3-3.6c-0.3,2.3-0.8,4.6-1.3,6.9c2.2,0.7,4.4,1.4,6.6,2.3
		C41.3,94.9,40.4,93,39.3,91.2z"/>
	<path fill="#E34A3B" d="M22.6,80.2c-4.3,3.7-8.9,7.1-13.9,10.1c4.3,0.1,8.6,0.4,12.8,1C22,87.6,22.4,83.9,22.6,80.2z"/>
	<path fill="#E34A3B" d="M31.4,97c-2.3-0.6-4.6-1.1-7-1.6c-0.4,2.1-0.8,4.3-1.3,6.4c2.1,0.6,4.1,1.3,6.2,2
		C30.1,101.6,30.8,99.3,31.4,97z"/>
	<path fill="#A07AB0" d="M35.6,51.6c0.5,2.2,0.9,4.4,1.3,6.6c1.9-2.9,3.6-5.8,5.1-8.9C39.9,50.2,37.8,50.9,35.6,51.6z"/>
	<path fill="#4FAEDD" d="M77.8,34.4C76,33,74.3,31.5,72.7,30c-1.6,1.5-3.3,3-5,4.4C71,34.6,74.4,34.6,77.8,34.4z"/>
	<path fill="#1C75BC" d="M103.9,32.9c3.3,1.7,6.7,3.2,10.2,4.5c1.5-3.9,3.4-7.8,5.5-11.6C114.6,28.7,109.3,31.1,103.9,32.9z"/>
	<path fill="#A07AB0" d="M31.3,37.7c3.5-1.4,7-3,10.3-4.7c-5.5-1.9-10.9-4.2-16-7.1C27.8,29.7,29.7,33.6,31.3,37.7z"/>
	<path fill="#4FAEDD" d="M72.6,15.5c-1.6,1.5-3.1,2.9-4.8,4.3c1.6,1.8,3.2,3.5,4.9,5.2c1.7-1.7,3.3-3.4,4.8-5.2
		C75.8,18.4,74.2,17,72.6,15.5z"/>
	<path fill="#4FAEDD" d="M70.1,27.5c-1.8-1.7-3.4-3.5-5.1-5.4c-3.9,3.1-8,6.1-12.3,8.7c-0.1,0.5-0.2,1-0.4,1.5
		c3.3,0.7,6.6,1.3,10,1.7C65.1,31.9,67.6,29.8,70.1,27.5z"/>
	<path fill="#FAA634" d="M67.6,111.3c1.8,1.4,3.6,2.9,5.3,4.5c1.7-1.6,3.4-3.1,5.2-4.5C74.6,111.1,71.1,111.1,67.6,111.3z"/>
	<path fill="#FAA634" d="M54.2,120.2c1.1,5.5,1.6,11,1.7,16.6c2.1-3.6,4.5-7,7.1-10.3C60.1,124.3,57.2,122.2,54.2,120.2z"/>
	<path fill="#FAA634" d="M72.9,130.3c1.6-1.5,3.2-2.9,4.9-4.4c-1.5-1.8-3.2-3.5-4.8-5.2c-1.7,1.7-3.3,3.4-4.9,5.3
		C69.7,127.4,71.3,128.9,72.9,130.3z"/>
	<path fill="#FAA634" d="M70.3,118.3c-2.5-2.3-5.2-4.5-8-6.5c-3.2,0.4-6.5,0.9-9.7,1.7c0.2,0.6,0.3,1.2,0.5,1.8
		c4.2,2.6,8.3,5.5,12.2,8.5C66.8,121.9,68.5,120.1,70.3,118.3z"/>
	<path fill="#1C75BC" d="M122.3,44.1c-2.1-0.6-4.1-1.3-6.1-2c-0.8,2.2-1.5,4.5-2.1,6.8c2.3,0.6,4.6,1.1,6.9,1.6
		C121.4,48.3,121.9,46.2,122.3,44.1z"/>
	<path fill="#1C75BC" d="M124.6,51c6,0.9,12.1,1.2,18.3,0.8c-0.4-1.2-0.7-2.4-1.2-3.5c-5.4-0.7-10.8-1.8-16-3.2
		C125.3,47.1,125,49.1,124.6,51z"/>
	<path fill="#8DC63F" d="M137.1,89.9c-5.1-3-9.8-6.5-14.2-10.3c0.2,3.8,0.6,7.6,1.2,11.3C128.4,90.4,132.8,90,137.1,89.9z"/>
	<path fill="#A07AB0" d="M9,55.9c4.8,2.9,9.3,6.1,13.5,9.8c-0.2-3.6-0.6-7.2-1.1-10.8C17.3,55.5,13.1,55.8,9,55.9z"/>
	<path fill="#1C75BC" d="M119.2,69.2c0.1-5.1,0.6-10.2,1.3-15.2c-2.4-0.5-4.8-1-7.2-1.6c-0.7,3.3-1.3,6.5-1.6,9.8
		c2,2.8,4.2,5.4,6.6,7.9C118.6,69.8,118.9,69.5,119.2,69.2z"/>
	<path fill="#8DC63F" d="M114.3,108.1c-3.5,1.4-6.8,2.9-10.1,4.6c5.4,1.8,10.6,4.1,15.5,6.9C117.6,115.9,115.8,112,114.3,108.1z"/>
	<path fill="#FAA634" d="M75.5,118.3c1.7,1.7,3.4,3.5,5,5.4c4-3.2,8.2-6.2,12.6-8.9c0.1-0.5,0.2-0.9,0.4-1.4
		c-3.3-0.7-6.7-1.3-10.1-1.7C80.6,113.8,78,116,75.5,118.3z"/>
	<path fill="#E34A3B" d="M33.9,83.2c-2-2.7-4.1-5.3-6.4-7.7c-0.4,0.4-0.8,0.8-1.2,1.3c-0.1,5.1-0.6,10.1-1.3,15.1
		c2.4,0.5,4.9,1,7.3,1.6C33,90.1,33.6,86.7,33.9,83.2z"/>
	<path fill="#8DC63F" d="M108.7,87.8c-1.8,2.8-3.5,5.7-5,8.7c2.1-0.8,4.1-1.5,6.3-2.2C109.5,92.1,109,89.9,108.7,87.8z"/>
	<path fill="#8DC63F" d="M113,104.8c-0.8-2.3-1.5-4.7-2.2-7.1c-3.2,1-6.3,2.2-9.4,3.5c-1.4,3.1-2.5,6.3-3.5,9.6
		c0.5,0.1,0.9,0.2,1.4,0.4C103.7,108.8,108.3,106.6,113,104.8z"/>
	<path fill="#A07AB0" d="M47.9,34.9c-0.5-0.1-0.9-0.3-1.4-0.4c-4.5,2.4-9.1,4.6-13.9,6.5c0.8,2.3,1.6,4.7,2.2,7.1
		c3.3-1,6.4-2.2,9.5-3.6C45.7,41.4,46.9,38.1,47.9,34.9z"/>
	<path fill="#FAA634" d="M90.2,137.2c0.1-5.9,0.7-11.7,1.8-17.4c-3.2,2.1-6.2,4.3-9.2,6.7C85.5,129.8,88,133.4,90.2,137.2z"/>
	<path fill="#E34A3B" d="M22.7,71.7c0-0.3,0-0.7,0-1C16.5,64.9,9.6,60,2,56.2c-2.6,10.8-2.7,22.3,0,33.7c7.7-4,14.6-8.9,20.8-14.7
		C22.8,74,22.8,72.8,22.7,71.7z"/>
	<path fill="#FAA634" d="M75.5,132.8c3.8,3.8,7.4,7.8,10.8,12.1c1.2-0.2,2.5-0.5,3.7-0.8c-2.8-5.5-6.1-10.7-9.9-15.4
		C78.5,130.1,76.9,131.4,75.5,132.8z"/>
	<path fill="#FAA634" d="M45.9,115.2c-8.2,2.5-15.9,6.2-23.1,10.8c8.3,7.9,18.4,13.7,29.4,17c0.4-8.6-0.3-17.2-2.3-25.5
		C48.6,116.7,47.2,116,45.9,115.2z"/>
	<path fill="#FAA634" d="M63.7,145.5c6,0.8,12.2,0.8,18.4,0c-2.9-3.6-6-7-9.3-10.2C69.6,138.5,66.6,142,63.7,145.5z"/>
	<path fill="#E34A3B" d="M22.3,105.2c-1.3,5.1-3,10.1-5,15c0.8,1,1.7,1.9,2.5,2.8c3.3-5.1,6-10.4,8.2-15.9
		C26.2,106.5,24.2,105.8,22.3,105.2z"/>
	<path fill="#E34A3B" d="M20.9,94.8c-5.8-0.9-11.8-1.1-17.8-0.8c0.4,1.2,0.8,2.5,1.2,3.7c5.2,0.7,10.4,1.8,15.4,3.2
		C20.1,98.8,20.5,96.8,20.9,94.8z"/>
	<path fill="#E34A3B" d="M5.8,101.4c2.4,5.7,5.4,10.9,9,15.6c1.6-4.2,3-8.5,4.1-12.8C14.5,103.1,10.2,102.1,5.8,101.4z"/>
	<path fill="#FAA634" d="M65.7,128.8c-3.7,4.7-7,9.8-9.7,15.2c1.2,0.3,2.4,0.6,3.7,0.8c3.3-4.2,6.8-8.3,10.6-12
		C68.8,131.5,67.3,130.1,65.7,128.8z"/>
	<path fill="#8DC63F" d="M96.2,117.1c-2,8.4-2.8,17.1-2.3,25.9c11.4-3.4,21.4-9.4,29.5-17.1c-7.4-4.8-15.4-8.4-23.7-10.9
		C98.5,115.7,97.4,116.4,96.2,117.1z"/>
	<path fill="#1C75BC" d="M144,55.7c-7.9,4.1-15,9.2-21.3,15.1c0,1.3,0,2.6,0,3.8c6.3,5.9,13.5,11,21.4,15.1
		C146.7,78.8,146.8,67.3,144,55.7z"/>
	<path fill="#8DC63F" d="M131.1,117.3c3.8-5,7-10.5,9.4-16.3c-4.6,0.7-9.2,1.7-13.7,2.9C128,108.5,129.4,112.9,131.1,117.3z"/>
	<path fill="#8DC63F" d="M124.7,94.5c0.4,2,0.8,4,1.2,5.9c5.3-1.5,10.7-2.6,16.1-3.3c0.4-1.2,0.8-2.3,1.1-3.5
		C137,93.4,130.8,93.6,124.7,94.5z"/>
	<path fill="#8DC63F" d="M121.1,95.1c-2.3,0.4-4.6,1-6.9,1.6c0.6,2.3,1.3,4.5,2.1,6.8c2-0.7,4-1.4,6.1-2
		C122,99.4,121.5,97.3,121.1,95.1z"/>
	<path fill="#8DC63F" d="M117.6,106.9c2.3,5.7,5.1,11.2,8.5,16.4c0.8-0.9,1.6-1.8,2.4-2.7c-2.1-5.1-3.8-10.3-5.2-15.6
		C121.4,105.6,119.5,106.2,117.6,106.9z"/>
	<path fill="#8DC63F" d="M120.6,91.6c-0.8-5.1-1.2-10.2-1.4-15.4c-0.3-0.3-0.6-0.6-0.9-0.9c-2.3,2.6-4.5,5.2-6.6,8
		c0.4,3.3,1,6.6,1.7,9.9C115.8,92.6,118.2,92.1,120.6,91.6z"/>
	<path fill="#4FAEDD" d="M70,13c-3.7-3.7-7.2-7.6-10.5-11.7c-1.2,0.2-2.4,0.5-3.7,0.8c2.8,5.3,6,10.4,9.7,15
		C67,15.8,68.5,14.4,70,13z"/>
	<path fill="#1C75BC" d="M123.2,40.6c1.4-5.2,3.1-10.4,5.1-15.4c-0.8-0.9-1.6-1.8-2.5-2.7c-3.3,5.2-6.1,10.6-8.3,16.2
		C119.4,39.4,121.3,40.1,123.2,40.6z"/>
	<path fill="#4FAEDD" d="M99.5,30.6c8.3-2.5,16.2-6.2,23.5-10.9C114.6,11.9,104.5,6.2,93.6,3c-0.4,8.8,0.4,17.4,2.4,25.7
		C97.2,29.3,98.3,30,99.5,30.6z"/>
	<path fill="#1C75BC" d="M140.3,44.5c-2.5-5.8-5.6-11.2-9.4-16.1c-1.7,4.3-3.1,8.7-4.2,13.2C131.1,42.9,135.7,43.8,140.3,44.5z"/>
	<path fill="#A07AB0" d="M20.8,51.3c-0.4-2-0.8-4-1.2-5.9c-5.1,1.4-10.2,2.5-15.3,3.2c-0.4,1.2-0.8,2.4-1.2,3.6
		C9,52.5,14.9,52.2,20.8,51.3z"/>
	<path fill="#1C75BC" d="M122.9,65.8c4.3-3.8,9-7.2,13.9-10.2c-4.3,0-8.6-0.4-12.8-1C123.5,58.3,123.1,62,122.9,65.8z"/>
	<path fill="#4FAEDD" d="M81.6,0.5c-5.9-0.7-12-0.7-18,0.1c2.8,3.5,5.8,6.8,9,9.9C75.7,7.4,78.7,4,81.6,0.5z"/>
	<path fill="#1C75BC" d="M103.7,49.3c1.5,2.9,3.1,5.8,5,8.6c0.3-2.2,0.7-4.3,1.2-6.5C107.8,50.7,105.7,50,103.7,49.3z"/>
	<path fill="#4FAEDD" d="M79.7,17.1c3.7-4.7,7-9.8,9.7-15.2c-1.3-0.3-2.5-0.6-3.8-0.8C82.4,5.3,78.9,9.3,75.1,13
		C76.6,14.4,78.2,15.8,79.7,17.1z"/>
	<path fill="#A07AB0" d="M27.9,38.9c-2.2-5.5-5-10.8-8.2-15.8C18.9,24,18,25,17.2,26c2,4.9,3.6,9.8,5,14.9
		C24.1,40.3,26,39.6,27.9,38.9z"/>
	<path fill="#A07AB0" d="M33.9,62.6c-0.4-3.4-1-6.7-1.7-10c-2.4,0.6-4.8,1.2-7.3,1.7c0.7,4.9,1.2,9.8,1.4,14.8
		c0.4,0.4,0.9,0.8,1.3,1.2C29.8,67.8,31.9,65.3,33.9,62.6z"/>
	<path fill="#A07AB0" d="M14.6,29.2C11,34,8.1,39.2,5.7,44.7c4.4-0.7,8.7-1.6,13-2.8C17.6,37.6,16.2,33.4,14.6,29.2z"/>
	<path fill="#A07AB0" d="M49.6,28.5c1.9-8.2,2.7-16.7,2.3-25.4c-11.2,3.4-21,9.3-29,16.8c7.2,4.6,15,8.2,23.2,10.6
		C47.2,29.9,48.4,29.2,49.6,28.5z"/>
	<path fill="#4FAEDD" d="M55.6,9c-0.1,5.7-0.7,11.3-1.7,16.8c3.1-2,6-4.2,8.9-6.5C60.1,16.1,57.7,12.6,55.6,9z"/>
	<path fill="#A07AB0" d="M24.3,50.7c2.4-0.4,4.7-1,7-1.6c-0.6-2.3-1.3-4.6-2.1-6.8c-2,0.7-4.1,1.4-6.2,2.1
		C23.5,46.5,24,48.6,24.3,50.7z"/>
	<path fill="#1C75BC" d="M98.8,34.5c-0.3,0.1-0.7,0.2-1.1,0.3c1,3.3,2.3,6.5,3.7,9.6c3,1.3,6.2,2.5,9.3,3.4c0.6-2.4,1.3-4.7,2.1-7
		c-4.7-1.9-9.4-4-13.8-6.4C99,34.5,98.9,34.5,98.8,34.5z"/>
</g>
</svg>
